<svg width="342" height="168" viewBox="0 0 342 168" fill="none" xmlns="http://www.w3.org/2000/svg">
<line x1="0.5" y1="15.5" x2="341.5" y2="15.5" stroke="#1C1C1C" stroke-opacity="0.05" stroke-linecap="round"/>
<line x1="0.5" y1="56.8334" x2="341.5" y2="56.8334" stroke="#1C1C1C" stroke-opacity="0.05" stroke-linecap="round"/>
<line x1="0.5" y1="98.1666" x2="341.5" y2="98.1666" stroke="#1C1C1C" stroke-opacity="0.05" stroke-linecap="round"/>
<line x1="0.5" y1="139.5" x2="341.5" y2="139.5" stroke="#1C1C1C" stroke-opacity="0.2" stroke-linecap="round"/>
<path d="M22.4036 154.273H23.4604V160.511C23.4604 161.068 23.3581 161.541 23.1536 161.93C22.949 162.32 22.6607 162.615 22.2885 162.817C21.9164 163.018 21.4775 163.119 20.9718 163.119C20.4945 163.119 20.0698 163.033 19.6976 162.859C19.3255 162.683 19.0328 162.433 18.8198 162.109C18.6067 161.786 18.5002 161.401 18.5002 160.955H19.54C19.54 161.202 19.601 161.418 19.7232 161.602C19.8482 161.784 20.0186 161.926 20.2346 162.028C20.4505 162.131 20.6962 162.182 20.9718 162.182C21.2757 162.182 21.5343 162.118 21.7473 161.99C21.9604 161.862 22.1223 161.675 22.2331 161.428C22.3468 161.178 22.4036 160.872 22.4036 160.511V154.273ZM27.9135 163.136C27.3681 163.136 26.8865 162.999 26.4689 162.723C26.0513 162.445 25.7246 162.053 25.4888 161.547C25.253 161.038 25.1351 160.438 25.1351 159.744C25.1351 159.057 25.253 158.46 25.4888 157.955C25.7246 157.449 26.0527 157.058 26.4732 156.783C26.8936 156.507 27.3794 156.369 27.9306 156.369C28.3567 156.369 28.6934 156.44 28.9405 156.582C29.1905 156.722 29.3809 156.881 29.5115 157.06C29.6451 157.236 29.7488 157.381 29.8226 157.494H29.9078V156.455H30.9135V163H29.9419V161.994H29.8226C29.7488 162.114 29.6436 162.264 29.5073 162.446C29.3709 162.625 29.1763 162.786 28.9235 162.928C28.6706 163.067 28.334 163.136 27.9135 163.136ZM28.0499 162.233C28.4533 162.233 28.7942 162.128 29.0726 161.918C29.351 161.705 29.5627 161.411 29.7076 161.036C29.8525 160.658 29.9249 160.222 29.9249 159.727C29.9249 159.239 29.8539 158.811 29.7118 158.445C29.5698 158.075 29.3596 157.788 29.0811 157.584C28.8027 157.376 28.459 157.273 28.0499 157.273C27.6238 157.273 27.2686 157.382 26.9846 157.601C26.7033 157.817 26.4917 158.111 26.3496 158.483C26.2104 158.852 26.1408 159.267 26.1408 159.727C26.1408 160.193 26.2118 160.616 26.3539 160.997C26.4988 161.375 26.7118 161.676 26.9931 161.901C27.2772 162.122 27.6294 162.233 28.0499 162.233ZM33.9007 159.062V163H32.8951V156.455H33.8667V157.477H33.9519C34.1053 157.145 34.3382 156.878 34.6507 156.676C34.9632 156.472 35.3667 156.369 35.861 156.369C36.3042 156.369 36.6919 156.46 37.0243 156.642C37.3567 156.821 37.6152 157.094 37.7999 157.46C37.9846 157.824 38.0769 158.284 38.0769 158.841V163H37.0712V158.909C37.0712 158.395 36.9377 157.994 36.6706 157.707C36.4036 157.418 36.0371 157.273 35.5712 157.273C35.2502 157.273 34.9632 157.342 34.7104 157.482C34.4604 157.621 34.263 157.824 34.1181 158.091C33.9732 158.358 33.9007 158.682 33.9007 159.062Z" fill="#1C1C1C" fill-opacity="0.4"/>
<path d="M76.0568 163V154.273H81.2898V155.21H77.1136V158.159H80.8977V159.097H77.1136V163H76.0568ZM85.2273 163.136C84.5966 163.136 84.0526 162.997 83.5952 162.719C83.1406 162.438 82.7898 162.045 82.5426 161.543C82.2983 161.037 82.1761 160.449 82.1761 159.778C82.1761 159.108 82.2983 158.517 82.5426 158.006C82.7898 157.491 83.1335 157.091 83.5739 156.804C84.017 156.514 84.5341 156.369 85.125 156.369C85.4659 156.369 85.8026 156.426 86.1349 156.54C86.4673 156.653 86.7699 156.838 87.0426 157.094C87.3153 157.347 87.5327 157.682 87.6946 158.099C87.8565 158.517 87.9375 159.031 87.9375 159.642V160.068H82.892V159.199H86.9148C86.9148 158.83 86.8409 158.5 86.6932 158.21C86.5483 157.92 86.3409 157.692 86.071 157.524C85.804 157.357 85.4886 157.273 85.125 157.273C84.7244 157.273 84.3778 157.372 84.0852 157.571C83.7955 157.767 83.5724 158.023 83.4162 158.338C83.2599 158.653 83.1818 158.991 83.1818 159.352V159.932C83.1818 160.426 83.267 160.845 83.4375 161.189C83.6108 161.53 83.8509 161.79 84.1577 161.969C84.4645 162.145 84.821 162.233 85.2273 162.233C85.4915 162.233 85.7301 162.196 85.9432 162.122C86.1591 162.045 86.3452 161.932 86.5014 161.781C86.6577 161.628 86.7784 161.437 86.8636 161.21L87.8352 161.483C87.733 161.812 87.5611 162.102 87.3196 162.352C87.0781 162.599 86.7798 162.793 86.4247 162.932C86.0696 163.068 85.6705 163.136 85.2273 163.136ZM89.6037 163V154.273H90.6094V157.494H90.6946C90.7685 157.381 90.8707 157.236 91.0014 157.06C91.1349 156.881 91.3253 156.722 91.5724 156.582C91.8224 156.44 92.1605 156.369 92.5866 156.369C93.1378 156.369 93.6236 156.507 94.044 156.783C94.4645 157.058 94.7926 157.449 95.0284 157.955C95.2642 158.46 95.3821 159.057 95.3821 159.744C95.3821 160.438 95.2642 161.038 95.0284 161.547C94.7926 162.053 94.4659 162.445 94.0483 162.723C93.6307 162.999 93.1491 163.136 92.6037 163.136C92.1832 163.136 91.8466 163.067 91.5938 162.928C91.3409 162.786 91.1463 162.625 91.0099 162.446C90.8736 162.264 90.7685 162.114 90.6946 161.994H90.5753V163H89.6037ZM90.5923 159.727C90.5923 160.222 90.6648 160.658 90.8097 161.036C90.9545 161.411 91.1662 161.705 91.4446 161.918C91.723 162.128 92.0639 162.233 92.4673 162.233C92.8878 162.233 93.2386 162.122 93.5199 161.901C93.804 161.676 94.017 161.375 94.1591 160.997C94.304 160.616 94.3764 160.193 94.3764 159.727C94.3764 159.267 94.3054 158.852 94.1634 158.483C94.0241 158.111 93.8125 157.817 93.5284 157.601C93.2472 157.382 92.8935 157.273 92.4673 157.273C92.0582 157.273 91.7145 157.376 91.4361 157.584C91.1577 157.788 90.9474 158.075 90.8054 158.445C90.6634 158.811 90.5923 159.239 90.5923 159.727Z" fill="#1C1C1C" fill-opacity="0.4"/>
<path d="M132.26 154.273H133.521L136.487 161.517H136.589L139.555 154.273H140.817V163H139.828V156.369H139.743L137.016 163H136.061L133.334 156.369H133.249V163H132.26V154.273ZM145.271 163.136C144.725 163.136 144.244 162.999 143.826 162.723C143.409 162.445 143.082 162.053 142.846 161.547C142.61 161.038 142.493 160.438 142.493 159.744C142.493 159.057 142.61 158.46 142.846 157.955C143.082 157.449 143.41 157.058 143.831 156.783C144.251 156.507 144.737 156.369 145.288 156.369C145.714 156.369 146.051 156.44 146.298 156.582C146.548 156.722 146.738 156.881 146.869 157.06C147.002 157.236 147.106 157.381 147.18 157.494H147.265V156.455H148.271V163H147.299V161.994H147.18C147.106 162.114 147.001 162.264 146.865 162.446C146.728 162.625 146.534 162.786 146.281 162.928C146.028 163.067 145.691 163.136 145.271 163.136ZM145.407 162.233C145.811 162.233 146.152 162.128 146.43 161.918C146.708 161.705 146.92 161.411 147.065 161.036C147.21 160.658 147.282 160.222 147.282 159.727C147.282 159.239 147.211 158.811 147.069 158.445C146.927 158.075 146.717 157.788 146.439 157.584C146.16 157.376 145.816 157.273 145.407 157.273C144.981 157.273 144.626 157.382 144.342 157.601C144.061 157.817 143.849 158.111 143.707 158.483C143.568 158.852 143.498 159.267 143.498 159.727C143.498 160.193 143.569 160.616 143.711 160.997C143.856 161.375 144.069 161.676 144.35 161.901C144.635 162.122 144.987 162.233 145.407 162.233ZM150.252 163V156.455H151.224V157.443H151.292C151.412 157.119 151.627 156.857 151.94 156.655C152.252 156.453 152.605 156.352 152.997 156.352C153.071 156.352 153.163 156.354 153.274 156.357C153.385 156.359 153.468 156.364 153.525 156.369V157.392C153.491 157.384 153.413 157.371 153.291 157.354C153.172 157.334 153.045 157.324 152.912 157.324C152.593 157.324 152.309 157.391 152.059 157.524C151.812 157.655 151.616 157.837 151.471 158.07C151.329 158.3 151.258 158.562 151.258 158.858V163H150.252Z" fill="#1C1C1C" fill-opacity="0.4"/>
<path d="M190.971 163H189.863L193.068 154.273H194.159L197.363 163H196.256L193.648 155.653H193.579L190.971 163ZM191.381 159.591H195.846V160.528H191.381V159.591ZM198.586 165.455V156.455H199.558V157.494H199.677C199.751 157.381 199.854 157.236 199.984 157.06C200.118 156.881 200.308 156.722 200.555 156.582C200.805 156.44 201.143 156.369 201.569 156.369C202.121 156.369 202.606 156.507 203.027 156.783C203.447 157.058 203.775 157.449 204.011 157.955C204.247 158.46 204.365 159.057 204.365 159.744C204.365 160.438 204.247 161.038 204.011 161.547C203.775 162.053 203.449 162.445 203.031 162.723C202.613 162.999 202.132 163.136 201.586 163.136C201.166 163.136 200.829 163.067 200.577 162.928C200.324 162.786 200.129 162.625 199.993 162.446C199.856 162.264 199.751 162.114 199.677 161.994H199.592V165.455H198.586ZM199.575 159.727C199.575 160.222 199.648 160.658 199.792 161.036C199.937 161.411 200.149 161.705 200.427 161.918C200.706 162.128 201.047 162.233 201.45 162.233C201.871 162.233 202.221 162.122 202.503 161.901C202.787 161.676 203 161.375 203.142 160.997C203.287 160.616 203.359 160.193 203.359 159.727C203.359 159.267 203.288 158.852 203.146 158.483C203.007 158.111 202.795 157.817 202.511 157.601C202.23 157.382 201.876 157.273 201.45 157.273C201.041 157.273 200.697 157.376 200.419 157.584C200.14 157.788 199.93 158.075 199.788 158.445C199.646 158.811 199.575 159.239 199.575 159.727ZM205.899 163V156.455H206.871V157.443H206.939C207.058 157.119 207.274 156.857 207.586 156.655C207.899 156.453 208.251 156.352 208.643 156.352C208.717 156.352 208.809 156.354 208.92 156.357C209.031 156.359 209.115 156.364 209.172 156.369V157.392C209.138 157.384 209.059 157.371 208.937 157.354C208.818 157.334 208.692 157.324 208.558 157.324C208.24 157.324 207.956 157.391 207.706 157.524C207.459 157.655 207.263 157.837 207.118 158.07C206.976 158.3 206.905 158.562 206.905 158.858V163H205.899Z" fill="#1C1C1C" fill-opacity="0.4"/>
<path d="M245.153 154.273H246.414L249.38 161.517H249.482L252.448 154.273H253.709V163H252.721V156.369H252.635L249.908 163H248.954L246.226 156.369H246.141V163H245.153V154.273ZM258.164 163.136C257.618 163.136 257.137 162.999 256.719 162.723C256.301 162.445 255.975 162.053 255.739 161.547C255.503 161.038 255.385 160.438 255.385 159.744C255.385 159.057 255.503 158.46 255.739 157.955C255.975 157.449 256.303 157.058 256.723 156.783C257.144 156.507 257.629 156.369 258.181 156.369C258.607 156.369 258.943 156.44 259.191 156.582C259.441 156.722 259.631 156.881 259.762 157.06C259.895 157.236 259.999 157.381 260.073 157.494H260.158V156.455H261.164V163H260.192V161.994H260.073C259.999 162.114 259.894 162.264 259.757 162.446C259.621 162.625 259.426 162.786 259.173 162.928C258.921 163.067 258.584 163.136 258.164 163.136ZM258.3 162.233C258.703 162.233 259.044 162.128 259.323 161.918C259.601 161.705 259.813 161.411 259.958 161.036C260.102 160.658 260.175 160.222 260.175 159.727C260.175 159.239 260.104 158.811 259.962 158.445C259.82 158.075 259.61 157.788 259.331 157.584C259.053 157.376 258.709 157.273 258.3 157.273C257.874 157.273 257.519 157.382 257.235 157.601C256.953 157.817 256.742 158.111 256.6 158.483C256.46 158.852 256.391 159.267 256.391 159.727C256.391 160.193 256.462 160.616 256.604 160.997C256.749 161.375 256.962 161.676 257.243 161.901C257.527 162.122 257.879 162.233 258.3 162.233ZM263.793 165.455C263.622 165.455 263.47 165.44 263.337 165.412C263.203 165.386 263.111 165.361 263.06 165.335L263.316 164.449C263.56 164.511 263.776 164.534 263.963 164.517C264.151 164.5 264.317 164.416 264.462 164.266C264.61 164.118 264.744 163.878 264.867 163.545L265.054 163.034L262.634 156.455H263.725L265.531 161.67H265.6L267.406 156.455H268.497L265.719 163.955C265.594 164.293 265.439 164.572 265.254 164.794C265.07 165.018 264.855 165.185 264.611 165.293C264.369 165.401 264.097 165.455 263.793 165.455Z" fill="#1C1C1C" fill-opacity="0.4"/>
<path d="M307.644 154.273H308.701V160.511C308.701 161.068 308.598 161.541 308.394 161.93C308.189 162.32 307.901 162.615 307.529 162.817C307.157 163.018 306.718 163.119 306.212 163.119C305.735 163.119 305.31 163.033 304.938 162.859C304.566 162.683 304.273 162.433 304.06 162.109C303.847 161.786 303.74 161.401 303.74 160.955H304.78C304.78 161.202 304.841 161.418 304.963 161.602C305.088 161.784 305.259 161.926 305.475 162.028C305.691 162.131 305.936 162.182 306.212 162.182C306.516 162.182 306.775 162.118 306.988 161.99C307.201 161.862 307.363 161.675 307.473 161.428C307.587 161.178 307.644 160.872 307.644 160.511V154.273ZM314.807 160.324V156.455H315.813V163H314.807V161.892H314.739C314.586 162.224 314.347 162.507 314.023 162.74C313.699 162.97 313.29 163.085 312.796 163.085C312.387 163.085 312.023 162.996 311.705 162.817C311.387 162.635 311.137 162.362 310.955 161.999C310.773 161.632 310.682 161.17 310.682 160.614V156.455H311.688V160.545C311.688 161.023 311.821 161.403 312.088 161.688C312.358 161.972 312.702 162.114 313.12 162.114C313.37 162.114 313.624 162.05 313.882 161.922C314.144 161.794 314.363 161.598 314.539 161.334C314.718 161.07 314.807 160.733 314.807 160.324ZM318.661 159.062V163H317.655V156.455H318.626V157.477H318.712C318.865 157.145 319.098 156.878 319.411 156.676C319.723 156.472 320.126 156.369 320.621 156.369C321.064 156.369 321.452 156.46 321.784 156.642C322.116 156.821 322.375 157.094 322.56 157.46C322.744 157.824 322.837 158.284 322.837 158.841V163H321.831V158.909C321.831 158.395 321.697 157.994 321.43 157.707C321.163 157.418 320.797 157.273 320.331 157.273C320.01 157.273 319.723 157.342 319.47 157.482C319.22 157.621 319.023 157.824 318.878 158.091C318.733 158.358 318.661 158.682 318.661 159.062Z" fill="#1C1C1C" fill-opacity="0.4"/>
<path opacity="0.5" d="M19 56.4C19 54.1598 19 53.0397 19.436 52.184C19.8195 51.4314 20.4314 50.8195 21.184 50.436C22.0397 50 23.1598 50 25.4 50H32.6C34.8402 50 35.9603 50 36.816 50.436C37.5686 50.8195 38.1805 51.4314 38.564 52.184C39 53.0397 39 54.1598 39 56.4V140H19V56.4Z" fill="#A8C5DA"/>
<rect x="19" y="68" width="20" height="72" fill="#A8C5DA"/>
<path opacity="0.5" d="M76 36.4C76 34.1598 76 33.0397 76.436 32.184C76.8195 31.4314 77.4314 30.8195 78.184 30.436C79.0397 30 80.1598 30 82.4 30H89.6C91.8402 30 92.9603 30 93.816 30.436C94.5686 30.8195 95.1805 31.4314 95.564 32.184C96 33.0397 96 34.1598 96 36.4V140H76V36.4Z" fill="#A8C5DA"/>
<rect x="76" y="52" width="20" height="88" fill="#A8C5DA"/>
<path opacity="0.5" d="M133 51.4C133 49.1598 133 48.0397 133.436 47.184C133.819 46.4314 134.431 45.8195 135.184 45.436C136.04 45 137.16 45 139.4 45H146.6C148.84 45 149.96 45 150.816 45.436C151.569 45.8195 152.181 46.4314 152.564 47.184C153 48.0397 153 49.1598 153 51.4V140H133V51.4Z" fill="#A8C5DA"/>
<rect x="133" y="64" width="20" height="76" fill="#A8C5DA"/>
<path opacity="0.5" d="M190 26.4C190 24.1598 190 23.0397 190.436 22.184C190.819 21.4314 191.431 20.8195 192.184 20.436C193.04 20 194.16 20 196.4 20H203.6C205.84 20 206.96 20 207.816 20.436C208.569 20.8195 209.181 21.4314 209.564 22.184C210 23.0397 210 24.1598 210 26.4V140H190V26.4Z" fill="#A8C5DA"/>
<rect x="190" y="44" width="20" height="96" fill="#A8C5DA"/>
<path opacity="0.5" d="M247 66.4C247 64.1598 247 63.0397 247.436 62.184C247.819 61.4314 248.431 60.8195 249.184 60.436C250.04 60 251.16 60 253.4 60H260.6C262.84 60 263.96 60 264.816 60.436C265.569 60.8195 266.181 61.4314 266.564 62.184C267 63.0397 267 64.1598 267 66.4V140H247V66.4Z" fill="#A8C5DA"/>
<rect x="247" y="76" width="20" height="64" fill="#A8C5DA"/>
<path opacity="0.5" d="M304 36.4C304 34.1598 304 33.0397 304.436 32.184C304.819 31.4314 305.431 30.8195 306.184 30.436C307.04 30 308.16 30 310.4 30H317.6C319.84 30 320.96 30 321.816 30.436C322.569 30.8195 323.181 31.4314 323.564 32.184C324 33.0397 324 34.1598 324 36.4V140H304V36.4Z" fill="#A8C5DA"/>
<rect x="304" y="52" width="20" height="88" fill="#A8C5DA"/>
</svg>
